<svg width="48" height="19" viewBox="0 0 48 19" fill="none" xmlns="http://www.w3.org/2000/svg">
<g filter="url(#filter0_d)">
<path d="M14.9102 0.439453C14.6289 0.650391 14.3652 0.902344 14.1191 1.19531C14.3574 1.34375 14.5586 1.50781 14.7227 1.6875C14.8867 1.86328 15.0176 2.04297 15.1152 2.22656C15.2168 2.41016 15.2891 2.5918 15.332 2.77148C15.375 2.95117 15.3965 3.11719 15.3965 3.26953C15.3965 3.65234 15.3242 3.98633 15.1797 4.27148C15.0352 4.55273 14.8438 4.78711 14.6055 4.97461C14.3711 5.16211 14.0996 5.30273 13.791 5.39648C13.4863 5.48633 13.1699 5.53125 12.8418 5.53125C12.4746 5.53125 12.1133 5.49023 11.7578 5.4082C11.5938 5.75586 11.416 6.10156 11.2246 6.44531C11.0332 6.78906 10.8242 7.11914 10.5977 7.43555C10.375 7.74805 10.1309 8.04102 9.86523 8.31445C9.60352 8.58398 9.32031 8.81641 9.01562 9.01172C8.71484 9.21094 8.38867 9.36719 8.03711 9.48047C7.68555 9.59375 7.31055 9.65039 6.91211 9.65039C6.52539 9.65039 6.16797 9.58789 5.83984 9.46289C5.51172 9.33789 5.22852 9.15625 4.99023 8.91797C4.75195 8.67578 4.56641 8.38281 4.43359 8.03906C4.30078 7.69141 4.23438 7.29492 4.23438 6.84961C4.23438 6.27148 4.33203 5.71484 4.52734 5.17969C4.72656 4.64453 4.99805 4.14453 5.3418 3.67969C5.68945 3.21484 6.09766 2.79297 6.56641 2.41406C7.03516 2.03516 7.54102 1.71094 8.08398 1.44141C8.62695 1.17188 9.19531 0.962891 9.78906 0.814453C10.3828 0.666016 10.9766 0.591797 11.5703 0.591797C12.0352 0.591797 12.4473 0.630859 12.8066 0.708984C13.1699 0.783203 13.4902 0.882813 13.7676 1.00781C13.9238 0.871094 14.0879 0.744141 14.2598 0.626953C14.4316 0.505859 14.6172 0.398438 14.8164 0.304688L14.9102 0.439453ZM11.2656 4.92188C11.4453 4.54688 11.623 4.1875 11.7988 3.84375C11.9746 3.49609 12.1523 3.16797 12.332 2.85938C12.5156 2.54688 12.7051 2.25586 12.9004 1.98633C13.0957 1.71289 13.3066 1.46094 13.5332 1.23047C13.2754 1.12891 12.9941 1.05469 12.6895 1.00781C12.3887 0.960938 12.0664 0.9375 11.7227 0.9375C11.25 0.9375 10.7871 0.994141 10.334 1.10742C9.88086 1.2207 9.44336 1.37695 9.02148 1.57617C8.60352 1.77148 8.20312 2.00391 7.82031 2.27344C7.44141 2.54297 7.08789 2.83594 6.75977 3.15234C6.43555 3.46875 6.14062 3.80078 5.875 4.14844C5.61328 4.49219 5.38867 4.83984 5.20117 5.19141C5.01758 5.54297 4.875 5.89062 4.77344 6.23438C4.67578 6.57422 4.62695 6.89844 4.62695 7.20703C4.62695 7.50781 4.68164 7.78906 4.79102 8.05078C4.90039 8.30859 5.05078 8.5332 5.24219 8.72461C5.4375 8.91602 5.66797 9.06641 5.93359 9.17578C6.20312 9.28516 6.49805 9.33984 6.81836 9.33984C7.31445 9.33984 7.75977 9.24219 8.1543 9.04688C8.54883 8.85156 8.91406 8.57422 9.25 8.21484C9.58594 7.85156 9.9043 7.41602 10.2051 6.9082C10.5059 6.40039 10.8125 5.83398 11.125 5.20898C10.7188 5.04883 10.3418 4.84375 9.99414 4.59375L10.0879 4.42969C10.2754 4.52344 10.4648 4.61328 10.6562 4.69922C10.8516 4.78125 11.0547 4.85547 11.2656 4.92188ZM14.7812 2.93555C14.7812 2.58789 14.7051 2.29102 14.5527 2.04492C14.4043 1.79883 14.1953 1.59375 13.9258 1.42969C13.5703 1.89063 13.2305 2.42773 12.9062 3.04102C12.5859 3.65039 12.2539 4.33008 11.9102 5.08008C12.0234 5.09961 12.1367 5.11523 12.25 5.12695C12.3633 5.13477 12.4785 5.13867 12.5957 5.13867C12.8926 5.13867 13.1719 5.08594 13.4336 4.98047C13.6992 4.875 13.9316 4.72656 14.1309 4.53516C14.3301 4.33984 14.4883 4.10742 14.6055 3.83789C14.7227 3.56836 14.7812 3.26758 14.7812 2.93555ZM17.5938 7.40625C17.6094 7.41016 17.625 7.41211 17.6406 7.41211C17.6562 7.41211 17.6738 7.41211 17.6934 7.41211C17.8027 7.41211 17.9023 7.40234 17.9922 7.38281C18.082 7.35938 18.1641 7.32422 18.2383 7.27734C18.3164 7.23047 18.3906 7.16992 18.4609 7.0957C18.5312 7.01758 18.5996 6.92383 18.666 6.81445L18.877 6.97852C18.6895 7.24414 18.4961 7.42969 18.2969 7.53516C18.0977 7.64062 17.8867 7.69336 17.6641 7.69336C17.582 7.69336 17.5098 7.68555 17.4473 7.66992C17.2793 7.95117 17.0996 8.19141 16.9082 8.39062C16.7168 8.58594 16.5215 8.74609 16.3223 8.87109C16.123 8.99609 15.9258 9.08594 15.7305 9.14062C15.5352 9.19922 15.3535 9.22852 15.1855 9.22852C15.0137 9.22852 14.8535 9.19727 14.7051 9.13477C14.5605 9.07617 14.4355 8.99023 14.3301 8.87695C14.2246 8.76367 14.1426 8.62891 14.084 8.47266C14.0254 8.31641 13.9961 8.14062 13.9961 7.94531C13.9961 7.75 14.0273 7.55078 14.0898 7.34766C14.1523 7.14453 14.2363 6.94336 14.3418 6.74414C14.4512 6.54492 14.5781 6.35352 14.7227 6.16992C14.8672 5.98242 15.0234 5.80859 15.1914 5.64844C15.3594 5.48828 15.5332 5.34375 15.7129 5.21484C15.8926 5.08594 16.0723 4.98047 16.252 4.89844L16.4395 5.14453C16.2324 5.29297 16.0215 5.48047 15.8066 5.70703C15.5957 5.93359 15.4023 6.18164 15.2266 6.45117C15.0547 6.7207 14.9121 7.00195 14.7988 7.29492C14.6895 7.58398 14.6348 7.86523 14.6348 8.13867C14.6348 8.38477 14.6895 8.57617 14.7988 8.71289C14.9082 8.8457 15.0742 8.91211 15.2969 8.91211C15.4688 8.91211 15.6387 8.87695 15.8066 8.80664C15.9746 8.73633 16.1387 8.64062 16.2988 8.51953C16.459 8.39844 16.6133 8.25586 16.7617 8.0918C16.9102 7.92383 17.0508 7.74609 17.1836 7.55859C17.0703 7.49219 16.9707 7.4043 16.8848 7.29492C16.7988 7.18164 16.7266 7.05469 16.668 6.91406C16.6094 6.76953 16.5645 6.61523 16.5332 6.45117C16.5059 6.28711 16.4922 6.11914 16.4922 5.94727C16.4922 5.77539 16.5137 5.61328 16.5566 5.46094C16.5996 5.30859 16.6582 5.17578 16.7324 5.0625C16.8105 4.94531 16.9004 4.85352 17.002 4.78711C17.1035 4.7207 17.2148 4.6875 17.3359 4.6875C17.4453 4.6875 17.543 4.7168 17.6289 4.77539C17.7148 4.83008 17.7871 4.9082 17.8457 5.00977C17.9043 5.10742 17.9492 5.22461 17.9805 5.36133C18.0117 5.49805 18.0273 5.64453 18.0273 5.80078C18.0273 5.91797 18.0176 6.04688 17.998 6.1875C17.9785 6.32812 17.9492 6.4707 17.9102 6.61523C17.875 6.75586 17.8301 6.89648 17.7754 7.03711C17.7246 7.17383 17.6641 7.29688 17.5938 7.40625ZM16.7969 5.94727C16.7969 6.06055 16.8066 6.18359 16.8262 6.31641C16.8457 6.44922 16.877 6.57812 16.9199 6.70312C16.9629 6.82812 17.0176 6.94531 17.084 7.05469C17.1504 7.16016 17.2324 7.24414 17.3301 7.30664C17.4004 7.16992 17.459 7.03125 17.5059 6.89062C17.5566 6.74609 17.5977 6.60742 17.6289 6.47461C17.6641 6.3418 17.6875 6.21875 17.6992 6.10547C17.7148 5.98828 17.7227 5.88672 17.7227 5.80078C17.7227 5.68359 17.7129 5.57617 17.6934 5.47852C17.6738 5.38086 17.6465 5.29688 17.6113 5.22656C17.5801 5.15234 17.5391 5.0957 17.4883 5.05664C17.4414 5.01367 17.3887 4.99219 17.3301 4.99219C17.252 4.99219 17.1797 5.01953 17.1133 5.07422C17.0469 5.125 16.9902 5.19531 16.9434 5.28516C16.8965 5.37109 16.8594 5.47266 16.832 5.58984C16.8086 5.70312 16.7969 5.82227 16.7969 5.94727ZM22.3691 6.97852C22.3105 7.06445 22.2402 7.18164 22.1582 7.33008C22.0801 7.47461 21.9883 7.63281 21.8828 7.80469C21.7773 7.97266 21.6602 8.14453 21.5312 8.32031C21.4062 8.49609 21.2676 8.6543 21.1152 8.79492C20.9668 8.93555 20.8047 9.05078 20.6289 9.14062C20.4531 9.23047 20.2656 9.27539 20.0664 9.27539C19.957 9.27539 19.8535 9.25781 19.7559 9.22266C19.6582 9.19141 19.5723 9.14062 19.498 9.07031C19.4238 9 19.3652 8.91406 19.3223 8.8125C19.2793 8.70703 19.2578 8.58398 19.2578 8.44336C19.2578 8.25195 19.2949 8.05273 19.3691 7.8457C19.4473 7.63477 19.5371 7.43164 19.6387 7.23633C19.7402 7.04102 19.8418 6.86328 19.9434 6.70312C20.0449 6.53906 20.1191 6.4082 20.166 6.31055C20.2129 6.21289 20.2363 6.12891 20.2363 6.05859C20.2363 6.00781 20.2188 5.96289 20.1836 5.92383C20.1523 5.88477 20.1113 5.84766 20.0605 5.8125C20.0137 5.77344 19.9629 5.73438 19.9082 5.69531C19.8574 5.65234 19.8145 5.60156 19.7793 5.54297C19.6816 5.69922 19.582 5.85742 19.4805 6.01758C19.3906 6.1543 19.293 6.30859 19.1875 6.48047C19.082 6.64844 18.9805 6.81445 18.8828 6.97852L18.6719 6.81445L19.9258 4.85156L20.0957 4.93945C20.0879 4.96289 20.0742 5 20.0547 5.05078C20.0391 5.10156 20.0312 5.15625 20.0312 5.21484C20.0312 5.25781 20.0371 5.30078 20.0488 5.34375C20.0645 5.38281 20.0938 5.41992 20.1367 5.45508C20.293 5.5957 20.416 5.70508 20.5059 5.7832C20.5957 5.85742 20.6602 5.91797 20.6992 5.96484C20.7422 6.00781 20.7676 6.04492 20.7754 6.07617C20.7871 6.10352 20.793 6.14062 20.793 6.1875C20.793 6.23438 20.7852 6.29102 20.7695 6.35742C20.7539 6.42383 20.7266 6.50391 20.6875 6.59766C20.6523 6.69141 20.6016 6.80273 20.5352 6.93164C20.4727 7.05664 20.3926 7.20312 20.2949 7.37109C20.2363 7.47266 20.1777 7.57617 20.1191 7.68164C20.0645 7.7832 20.0137 7.88672 19.9668 7.99219C19.9238 8.09766 19.8887 8.20312 19.8613 8.30859C19.834 8.41406 19.8203 8.51562 19.8203 8.61328C19.8203 8.6875 19.8301 8.74805 19.8496 8.79492C19.873 8.83789 19.9023 8.87109 19.9375 8.89453C19.9727 8.91797 20.0098 8.93359 20.0488 8.94141C20.0918 8.94922 20.1328 8.95312 20.1719 8.95312C20.3008 8.95312 20.4277 8.91602 20.5527 8.8418C20.6816 8.76367 20.8066 8.66406 20.9277 8.54297C21.0527 8.42188 21.1719 8.28516 21.2852 8.13281C21.4023 7.97656 21.5137 7.81836 21.6191 7.6582C21.7246 7.49805 21.8223 7.3457 21.9121 7.20117C22.002 7.05273 22.082 6.92383 22.1523 6.81445L22.3691 6.97852ZM23.3418 4.16602C23.3809 4.09961 23.4492 3.98438 23.5469 3.82031C23.6484 3.65625 23.7656 3.47461 23.8984 3.27539C24.0352 3.07617 24.1816 2.87695 24.3379 2.67773C24.498 2.47461 24.6543 2.30273 24.8066 2.16211L25.0703 2.32031C24.9023 2.59766 24.7305 2.89258 24.5547 3.20508C24.3789 3.51367 24.2051 3.83398 24.0332 4.16602H25.9434L25.8262 4.4707H23.875C23.6992 4.82227 23.5332 5.17188 23.377 5.51953C23.2246 5.86719 23.0898 6.19922 22.9727 6.51562C22.8555 6.83203 22.7637 7.12891 22.6973 7.40625C22.6309 7.67969 22.5977 7.91797 22.5977 8.12109C22.5977 8.375 22.6562 8.55859 22.7734 8.67188C22.8906 8.78125 23.0352 8.83594 23.207 8.83594C23.3594 8.83594 23.5156 8.79102 23.6758 8.70117C23.8359 8.60742 23.9922 8.49023 24.1445 8.34961C24.3008 8.20898 24.4473 8.05469 24.584 7.88672C24.7246 7.71875 24.8477 7.56055 24.9531 7.41211C25.0625 7.26367 25.1523 7.13477 25.2227 7.02539C25.293 6.91211 25.3359 6.8418 25.3516 6.81445L25.5684 6.97852C25.4316 7.20508 25.2773 7.44531 25.1055 7.69922C24.9336 7.95312 24.7422 8.18945 24.5312 8.4082C24.3242 8.62305 24.0977 8.80273 23.8516 8.94727C23.6055 9.08789 23.3398 9.1582 23.0547 9.1582C22.8789 9.1582 22.7246 9.12695 22.5918 9.06445C22.4629 9.00195 22.3535 8.91602 22.2637 8.80664C22.1738 8.69336 22.1074 8.56055 22.0645 8.4082C22.0176 8.25586 21.9941 8.08984 21.9941 7.91016C21.9941 7.79297 22.0137 7.62695 22.0527 7.41211C22.0879 7.19727 22.1504 6.94336 22.2402 6.65039C22.3301 6.35352 22.4492 6.02148 22.5977 5.6543C22.75 5.28711 22.9414 4.89258 23.1719 4.4707H22.1992L22.3164 4.16602H23.3418ZM25.416 8.58398C25.541 8.68164 25.707 8.73047 25.9141 8.73047C26.1367 8.73047 26.3457 8.69531 26.541 8.625C26.7402 8.55469 26.9258 8.46289 27.0977 8.34961C27.2695 8.23242 27.4277 8.10352 27.5723 7.96289C27.7168 7.82227 27.8457 7.68164 27.959 7.54102C28.0762 7.39648 28.1777 7.26172 28.2637 7.13672C28.3535 7.00781 28.4258 6.90039 28.4805 6.81445H28.8086C28.7539 6.9082 28.6777 7.0293 28.5801 7.17773C28.4863 7.32227 28.373 7.47656 28.2402 7.64062C28.1113 7.80469 27.9648 7.9707 27.8008 8.13867C27.6367 8.30273 27.4551 8.45117 27.2559 8.58398C27.0605 8.7168 26.8516 8.82617 26.6289 8.91211C26.4062 8.99414 26.1699 9.03516 25.9199 9.03516C25.8105 9.03516 25.7031 9.02344 25.5977 9C25.4961 8.97266 25.3965 8.93164 25.2988 8.87695C25.1699 9.19336 25.0449 9.50391 24.9238 9.80859C24.7988 10.1133 24.6816 10.4023 24.5723 10.6758C24.459 10.9492 24.3555 11.2012 24.2617 11.4316C24.168 11.6621 24.0859 11.8613 24.0156 12.0293C23.9453 12.2012 23.8906 12.3359 23.8516 12.4336C23.8125 12.5352 23.791 12.5879 23.7871 12.5918L23.1719 12.2871C23.3711 11.8184 23.5508 11.3887 23.7109 10.998C23.8672 10.6074 24.0137 10.2422 24.1504 9.90234C24.2832 9.5625 24.4102 9.24414 24.5312 8.94727C24.6484 8.64648 24.7676 8.35547 24.8887 8.07422C24.8262 7.98438 24.7812 7.89648 24.7539 7.81055C24.7227 7.72461 24.7031 7.6543 24.6953 7.59961C24.6875 7.50977 24.7129 7.43555 24.7715 7.37695C24.8262 7.31445 24.8984 7.2832 24.9883 7.2832C25.0625 7.2832 25.1309 7.30859 25.1934 7.35938C25.3105 7.07812 25.4141 6.83203 25.5039 6.62109C25.5977 6.40625 25.6758 6.22656 25.7383 6.08203C25.8086 5.91406 25.8711 5.76758 25.9258 5.64258C26.2656 4.8418 26.5801 4.15039 26.8691 3.56836C27.1621 2.98242 27.4316 2.48633 27.6777 2.08008C27.9238 1.66992 28.1484 1.33984 28.3516 1.08984C28.5547 0.835938 28.7383 0.638672 28.9023 0.498047C29.0703 0.357422 29.2207 0.263672 29.3535 0.216797C29.4863 0.166016 29.6055 0.140625 29.7109 0.140625C29.8828 0.140625 30.0273 0.179688 30.1445 0.257812C30.2656 0.332031 30.334 0.460938 30.3496 0.644531C30.3652 0.824219 30.332 1.05078 30.25 1.32422C30.1719 1.59766 30.0625 1.88867 29.9219 2.19727C29.7852 2.50195 29.625 2.81055 29.4414 3.12305C29.2578 3.43555 29.0703 3.72266 28.8789 3.98438C28.5156 4.47656 28.1855 4.88477 27.8887 5.20898C27.5957 5.5332 27.3379 5.79492 27.1152 5.99414C26.8926 6.19336 26.707 6.3418 26.5586 6.43945C26.4102 6.5332 26.3008 6.59766 26.2305 6.63281L25.416 8.58398ZM29.9863 0.732422C29.9824 0.666016 29.9668 0.609375 29.9395 0.5625C29.916 0.511719 29.8652 0.486328 29.7871 0.486328C29.7402 0.486328 29.6797 0.498047 29.6055 0.521484C29.5312 0.541016 29.4434 0.585938 29.3418 0.65625C29.2441 0.726562 29.1328 0.830078 29.0078 0.966797C28.8828 1.10352 28.7422 1.28711 28.5859 1.51758C28.4336 1.74805 28.2656 2.0332 28.082 2.37305C27.9023 2.71289 27.709 3.12305 27.502 3.60352C27.3652 3.9082 27.207 4.2793 27.0273 4.7168C26.8477 5.15039 26.6504 5.62109 26.4355 6.12891C26.6191 6 26.8105 5.83984 27.0098 5.64844C27.2129 5.45312 27.416 5.24023 27.6191 5.00977C27.8262 4.77539 28.0293 4.52734 28.2285 4.26562C28.4277 4.00391 28.6172 3.73828 28.7969 3.46875C28.9766 3.19922 29.1406 2.93164 29.2891 2.66602C29.4414 2.40039 29.5703 2.14844 29.6758 1.91016C29.7852 1.66797 29.8672 1.44727 29.9219 1.24805C29.9766 1.04492 29.998 0.873047 29.9863 0.732422ZM31.7852 7.40625C31.8008 7.41016 31.8164 7.41211 31.832 7.41211C31.8477 7.41211 31.8652 7.41211 31.8848 7.41211C31.9941 7.41211 32.0938 7.40234 32.1836 7.38281C32.2734 7.35938 32.3555 7.32422 32.4297 7.27734C32.5078 7.23047 32.582 7.16992 32.6523 7.0957C32.7227 7.01758 32.791 6.92383 32.8574 6.81445L33.0684 6.97852C32.8809 7.24414 32.6875 7.42969 32.4883 7.53516C32.2891 7.64062 32.0781 7.69336 31.8555 7.69336C31.7734 7.69336 31.7012 7.68555 31.6387 7.66992C31.4707 7.95117 31.291 8.19141 31.0996 8.39062C30.9082 8.58594 30.7129 8.74609 30.5137 8.87109C30.3145 8.99609 30.1172 9.08594 29.9219 9.14062C29.7266 9.19922 29.5449 9.22852 29.377 9.22852C29.2051 9.22852 29.0449 9.19727 28.8965 9.13477C28.752 9.07617 28.627 8.99023 28.5215 8.87695C28.416 8.76367 28.334 8.62891 28.2754 8.47266C28.2168 8.31641 28.1875 8.14062 28.1875 7.94531C28.1875 7.75 28.2188 7.55078 28.2812 7.34766C28.3438 7.14453 28.4277 6.94336 28.5332 6.74414C28.6426 6.54492 28.7695 6.35352 28.9141 6.16992C29.0586 5.98242 29.2148 5.80859 29.3828 5.64844C29.5508 5.48828 29.7246 5.34375 29.9043 5.21484C30.084 5.08594 30.2637 4.98047 30.4434 4.89844L30.6309 5.14453C30.4238 5.29297 30.2129 5.48047 29.998 5.70703C29.7871 5.93359 29.5938 6.18164 29.418 6.45117C29.2461 6.7207 29.1035 7.00195 28.9902 7.29492C28.8809 7.58398 28.8262 7.86523 28.8262 8.13867C28.8262 8.38477 28.8809 8.57617 28.9902 8.71289C29.0996 8.8457 29.2656 8.91211 29.4883 8.91211C29.6602 8.91211 29.8301 8.87695 29.998 8.80664C30.166 8.73633 30.3301 8.64062 30.4902 8.51953C30.6504 8.39844 30.8047 8.25586 30.9531 8.0918C31.1016 7.92383 31.2422 7.74609 31.375 7.55859C31.2617 7.49219 31.1621 7.4043 31.0762 7.29492C30.9902 7.18164 30.918 7.05469 30.8594 6.91406C30.8008 6.76953 30.7559 6.61523 30.7246 6.45117C30.6973 6.28711 30.6836 6.11914 30.6836 5.94727C30.6836 5.77539 30.7051 5.61328 30.748 5.46094C30.791 5.30859 30.8496 5.17578 30.9238 5.0625C31.002 4.94531 31.0918 4.85352 31.1934 4.78711C31.2949 4.7207 31.4062 4.6875 31.5273 4.6875C31.6367 4.6875 31.7344 4.7168 31.8203 4.77539C31.9062 4.83008 31.9785 4.9082 32.0371 5.00977C32.0957 5.10742 32.1406 5.22461 32.1719 5.36133C32.2031 5.49805 32.2188 5.64453 32.2188 5.80078C32.2188 5.91797 32.209 6.04688 32.1895 6.1875C32.1699 6.32812 32.1406 6.4707 32.1016 6.61523C32.0664 6.75586 32.0215 6.89648 31.9668 7.03711C31.916 7.17383 31.8555 7.29688 31.7852 7.40625ZM30.9883 5.94727C30.9883 6.06055 30.998 6.18359 31.0176 6.31641C31.0371 6.44922 31.0684 6.57812 31.1113 6.70312C31.1543 6.82812 31.209 6.94531 31.2754 7.05469C31.3418 7.16016 31.4238 7.24414 31.5215 7.30664C31.5918 7.16992 31.6504 7.03125 31.6973 6.89062C31.748 6.74609 31.7891 6.60742 31.8203 6.47461C31.8555 6.3418 31.8789 6.21875 31.8906 6.10547C31.9062 5.98828 31.9141 5.88672 31.9141 5.80078C31.9141 5.68359 31.9043 5.57617 31.8848 5.47852C31.8652 5.38086 31.8379 5.29688 31.8027 5.22656C31.7715 5.15234 31.7305 5.0957 31.6797 5.05664C31.6328 5.01367 31.5801 4.99219 31.5215 4.99219C31.4434 4.99219 31.3711 5.01953 31.3047 5.07422C31.2383 5.125 31.1816 5.19531 31.1348 5.28516C31.0879 5.37109 31.0508 5.47266 31.0234 5.58984C31 5.70312 30.9883 5.82227 30.9883 5.94727ZM37.1055 0.474609C37.2422 0.474609 37.3555 0.507813 37.4453 0.574219C37.5391 0.640625 37.5859 0.761719 37.5859 0.9375C37.5859 1.05859 37.5605 1.20312 37.5098 1.37109C37.4629 1.53906 37.3965 1.72266 37.3105 1.92188C37.2285 2.11719 37.1309 2.32422 37.0176 2.54297C36.9043 2.75781 36.7812 2.97266 36.6484 3.1875C36.5195 3.40234 36.3828 3.61133 36.2383 3.81445C36.0977 4.01758 35.957 4.20508 35.8164 4.37695C35.5352 4.72461 35.291 5.01758 35.084 5.25586C34.8809 5.49414 34.7051 5.69727 34.5566 5.86523C34.4082 6.0293 34.2832 6.16406 34.1816 6.26953C34.0801 6.37109 33.9902 6.45898 33.9121 6.5332C33.834 6.60742 33.7617 6.67578 33.6953 6.73828C33.6289 6.79688 33.5605 6.86328 33.4902 6.9375C33.459 7.08594 33.4434 7.22852 33.4434 7.36523C33.4473 7.49805 33.4492 7.62109 33.4492 7.73438C33.4492 8.07422 33.5039 8.32617 33.6133 8.49023C33.7227 8.6543 33.877 8.73633 34.0762 8.73633C34.209 8.73633 34.3418 8.70312 34.4746 8.63672C34.6113 8.56641 34.7461 8.47656 34.8789 8.36719C35.0117 8.25781 35.1406 8.13477 35.2656 7.99805C35.3906 7.85742 35.5078 7.7168 35.6172 7.57617C35.7305 7.43164 35.832 7.29297 35.9219 7.16016C36.0117 7.02734 36.0898 6.91211 36.1562 6.81445L36.373 6.97852C36.3613 6.99414 36.3223 7.05664 36.2559 7.16602C36.1934 7.27148 36.1094 7.40039 36.0039 7.55273C35.8984 7.70508 35.7734 7.86914 35.6289 8.04492C35.4844 8.2168 35.3281 8.37695 35.1602 8.52539C34.9922 8.67383 34.8145 8.79688 34.627 8.89453C34.4434 8.99219 34.2559 9.04102 34.0645 9.04102C33.9043 9.04102 33.75 9.01172 33.6016 8.95312C33.457 8.89062 33.3281 8.79492 33.2148 8.66602C33.1055 8.5332 33.0156 8.36523 32.9453 8.16211C32.8789 7.95898 32.8457 7.71484 32.8457 7.42969C32.8457 7.07422 32.8867 6.70312 32.9688 6.31641C33.0547 5.92578 33.1699 5.53516 33.3145 5.14453C33.459 4.75 33.6289 4.36133 33.8242 3.97852C34.0195 3.5957 34.2266 3.23242 34.4453 2.88867C34.668 2.54102 34.8984 2.2207 35.1367 1.92773C35.3789 1.63086 35.6152 1.375 35.8457 1.16016C36.0801 0.945312 36.3047 0.777344 36.5195 0.65625C36.7344 0.535156 36.9297 0.474609 37.1055 0.474609ZM33.5957 6.41602C33.9277 6.07227 34.248 5.72461 34.5566 5.37305C34.8691 5.01758 35.1602 4.66797 35.4297 4.32422C35.7031 3.97656 35.9531 3.64062 36.1797 3.31641C36.4062 2.98828 36.5996 2.67969 36.7598 2.39062C36.9199 2.10156 37.0449 1.83789 37.1348 1.59961C37.2246 1.36133 37.2695 1.15625 37.2695 0.984375C37.2695 0.953125 37.2539 0.912109 37.2227 0.861328C37.1914 0.806641 37.1543 0.779297 37.1113 0.779297C36.9902 0.779297 36.8301 0.859375 36.6309 1.01953C36.4316 1.17969 36.2148 1.39844 35.9805 1.67578C35.75 1.94922 35.5098 2.26953 35.2598 2.63672C35.0137 3.00391 34.7812 3.39648 34.5625 3.81445C34.3438 4.23242 34.1484 4.66406 33.9766 5.10938C33.8047 5.55469 33.6777 5.99023 33.5957 6.41602ZM38.7871 3.80273C38.7871 3.88086 38.7676 3.96289 38.7285 4.04883C38.6895 4.13086 38.6387 4.20508 38.5762 4.27148C38.5176 4.33789 38.4512 4.39258 38.377 4.43555C38.3027 4.47852 38.2285 4.5 38.1543 4.5C38.0879 4.5 38.0371 4.47656 38.002 4.42969C37.9668 4.37891 37.9492 4.31836 37.9492 4.24805C37.9492 4.18555 37.9609 4.11133 37.9844 4.02539C38.0078 3.93945 38.043 3.85938 38.0898 3.78516C38.1367 3.70703 38.1934 3.64062 38.2598 3.58594C38.3262 3.53125 38.4023 3.50391 38.4883 3.50391C38.5703 3.50391 38.6406 3.53516 38.6992 3.59766C38.7578 3.66016 38.7871 3.72852 38.7871 3.80273ZM37.6914 5.10352C37.6406 5.20508 37.5684 5.33984 37.4746 5.50781C37.3848 5.67188 37.2871 5.85352 37.1816 6.05273C37.0762 6.24805 36.9688 6.45508 36.8594 6.67383C36.75 6.88867 36.6504 7.09961 36.5605 7.30664C36.4746 7.50977 36.4043 7.70117 36.3496 7.88086C36.2949 8.06055 36.2676 8.21289 36.2676 8.33789C36.2676 8.45117 36.291 8.5293 36.3379 8.57227C36.3848 8.61133 36.4512 8.63086 36.5371 8.63086C36.6973 8.63086 36.8535 8.57812 37.0059 8.47266C37.1582 8.36719 37.3086 8.23047 37.457 8.0625C37.6094 7.89062 37.7578 7.69531 37.9023 7.47656C38.0469 7.25781 38.1914 7.03711 38.3359 6.81445L38.5469 6.97852C38.4336 7.18164 38.3047 7.39844 38.1602 7.62891C38.0195 7.85938 37.8613 8.07422 37.6855 8.27344C37.5098 8.46875 37.3164 8.63086 37.1055 8.75977C36.8945 8.88867 36.6641 8.95312 36.4141 8.95312C36.1797 8.95312 36 8.88281 35.875 8.74219C35.75 8.60156 35.6875 8.41992 35.6875 8.19727C35.6875 7.93555 35.748 7.66211 35.8691 7.37695C35.9902 7.0918 36.1406 6.81055 36.3203 6.5332C36.5039 6.25195 36.7012 5.98242 36.9121 5.72461C37.127 5.4668 37.3242 5.23242 37.5039 5.02148L37.6914 5.10352ZM41.6406 7.40625C41.6562 7.41016 41.6719 7.41211 41.6875 7.41211C41.7031 7.41211 41.7207 7.41211 41.7402 7.41211C41.8496 7.41211 41.9492 7.40234 42.0391 7.38281C42.1289 7.35938 42.2109 7.32422 42.2852 7.27734C42.3633 7.23047 42.4375 7.16992 42.5078 7.0957C42.5781 7.01758 42.6465 6.92383 42.7129 6.81445L42.9238 6.97852C42.7363 7.24414 42.543 7.42969 42.3438 7.53516C42.1445 7.64062 41.9336 7.69336 41.7109 7.69336C41.6289 7.69336 41.5566 7.68555 41.4941 7.66992C41.3262 7.95117 41.1465 8.19141 40.9551 8.39062C40.7637 8.58594 40.5684 8.74609 40.3691 8.87109C40.1699 8.99609 39.9727 9.08594 39.7773 9.14062C39.582 9.19922 39.4004 9.22852 39.2324 9.22852C39.0605 9.22852 38.9004 9.19727 38.752 9.13477C38.6074 9.07617 38.4824 8.99023 38.377 8.87695C38.2715 8.76367 38.1895 8.62891 38.1309 8.47266C38.0723 8.31641 38.043 8.14062 38.043 7.94531C38.043 7.75 38.0742 7.55078 38.1367 7.34766C38.1992 7.14453 38.2832 6.94336 38.3887 6.74414C38.498 6.54492 38.625 6.35352 38.7695 6.16992C38.9141 5.98242 39.0703 5.80859 39.2383 5.64844C39.4062 5.48828 39.5801 5.34375 39.7598 5.21484C39.9395 5.08594 40.1191 4.98047 40.2988 4.89844L40.4863 5.14453C40.2793 5.29297 40.0684 5.48047 39.8535 5.70703C39.6426 5.93359 39.4492 6.18164 39.2734 6.45117C39.1016 6.7207 38.959 7.00195 38.8457 7.29492C38.7363 7.58398 38.6816 7.86523 38.6816 8.13867C38.6816 8.38477 38.7363 8.57617 38.8457 8.71289C38.9551 8.8457 39.1211 8.91211 39.3438 8.91211C39.5156 8.91211 39.6855 8.87695 39.8535 8.80664C40.0215 8.73633 40.1855 8.64062 40.3457 8.51953C40.5059 8.39844 40.6602 8.25586 40.8086 8.0918C40.957 7.92383 41.0977 7.74609 41.2305 7.55859C41.1172 7.49219 41.0176 7.4043 40.9316 7.29492C40.8457 7.18164 40.7734 7.05469 40.7148 6.91406C40.6562 6.76953 40.6113 6.61523 40.5801 6.45117C40.5527 6.28711 40.5391 6.11914 40.5391 5.94727C40.5391 5.77539 40.5605 5.61328 40.6035 5.46094C40.6465 5.30859 40.7051 5.17578 40.7793 5.0625C40.8574 4.94531 40.9473 4.85352 41.0488 4.78711C41.1504 4.7207 41.2617 4.6875 41.3828 4.6875C41.4922 4.6875 41.5898 4.7168 41.6758 4.77539C41.7617 4.83008 41.834 4.9082 41.8926 5.00977C41.9512 5.10742 41.9961 5.22461 42.0273 5.36133C42.0586 5.49805 42.0742 5.64453 42.0742 5.80078C42.0742 5.91797 42.0645 6.04688 42.0449 6.1875C42.0254 6.32812 41.9961 6.4707 41.957 6.61523C41.9219 6.75586 41.877 6.89648 41.8223 7.03711C41.7715 7.17383 41.7109 7.29688 41.6406 7.40625ZM40.8438 5.94727C40.8438 6.06055 40.8535 6.18359 40.873 6.31641C40.8926 6.44922 40.9238 6.57812 40.9668 6.70312C41.0098 6.82812 41.0645 6.94531 41.1309 7.05469C41.1973 7.16016 41.2793 7.24414 41.377 7.30664C41.4473 7.16992 41.5059 7.03125 41.5527 6.89062C41.6035 6.74609 41.6445 6.60742 41.6758 6.47461C41.7109 6.3418 41.7344 6.21875 41.7461 6.10547C41.7617 5.98828 41.7695 5.88672 41.7695 5.80078C41.7695 5.68359 41.7598 5.57617 41.7402 5.47852C41.7207 5.38086 41.6934 5.29688 41.6582 5.22656C41.627 5.15234 41.5859 5.0957 41.5352 5.05664C41.4883 5.01367 41.4355 4.99219 41.377 4.99219C41.2988 4.99219 41.2266 5.01953 41.1602 5.07422C41.0938 5.125 41.0371 5.19531 40.9902 5.28516C40.9434 5.37109 40.9062 5.47266 40.8789 5.58984C40.8555 5.70312 40.8438 5.82227 40.8438 5.94727ZM43.6914 8.63086C43.6914 8.74805 43.6484 8.84961 43.5625 8.93555C43.4805 9.01758 43.3789 9.05859 43.2578 9.05859C43.1445 9.05859 43.0449 9.01758 42.959 8.93555C42.877 8.84961 42.8359 8.74805 42.8359 8.63086C42.8359 8.51758 42.877 8.41992 42.959 8.33789C43.0449 8.25195 43.1445 8.20898 43.2578 8.20898C43.3789 8.20898 43.4805 8.25195 43.5625 8.33789C43.6484 8.41992 43.6914 8.51758 43.6914 8.63086Z" fill="#0F0F0F"/>
</g>
<defs>
<filter id="filter0_d" x="0.234375" y="0.140625" width="47.457" height="20.4512" filterUnits="userSpaceOnUse" color-interpolation-filters="sRGB">
<feFlood flood-opacity="0" result="BackgroundImageFix"/>
<feColorMatrix in="SourceAlpha" type="matrix" values="0 0 0 0 0 0 0 0 0 0 0 0 0 0 0 0 0 0 127 0"/>
<feOffset dy="4"/>
<feGaussianBlur stdDeviation="2"/>
<feColorMatrix type="matrix" values="0 0 0 0 0 0 0 0 0 0 0 0 0 0 0 0 0 0 0.25 0"/>
<feBlend mode="normal" in2="BackgroundImageFix" result="effect1_dropShadow"/>
<feBlend mode="normal" in="SourceGraphic" in2="effect1_dropShadow" result="shape"/>
</filter>
</defs>
</svg>
