<svg width="1440" height="1024" viewBox="0 0 1440 1024" fill="none" xmlns="http://www.w3.org/2000/svg">
<g clip-path="url(#clip0)">
<rect width="1440" height="1024" fill="#162F45"/>
<g style="mix-blend-mode:overlay" clip-path="url(#clip1)">
<path fill-rule="evenodd" clip-rule="evenodd" d="M267.224 188.693C252.765 188.693 249.734 182.808 249.734 177.866C249.734 177.398 250.16 177.02 250.688 177.02H254.96C255.429 177.02 255.826 177.326 255.899 177.736C256.545 181.597 258.461 183.544 267.209 183.544C274.174 183.544 277.132 182.15 277.132 178.869C277.132 176.981 276.288 175.581 265.47 174.644C256.42 173.849 250.828 172.085 250.828 165.659C250.828 159.748 256.45 156.226 265.873 156.226C276.457 156.226 281.697 159.481 282.358 166.486C282.38 166.727 282.284 166.961 282.101 167.137C281.917 167.307 281.661 167.411 281.396 167.411H277.11C276.662 167.411 276.273 167.131 276.185 166.753C275.15 162.697 272.655 161.395 265.859 161.395C258.255 161.395 257.374 163.745 257.374 165.503C257.374 167.639 258.417 168.264 268.677 169.468C278.835 170.666 283.657 172.352 283.657 178.687C283.657 185.073 277.653 188.732 267.18 188.732L267.224 188.693ZM257.015 212.001C255.804 212.001 254.607 211.721 253.55 211.18L242.519 205.386C240.868 204.566 241.675 204.279 242.218 204.11C244.413 203.426 244.861 203.277 247.209 202.092C247.459 201.968 247.782 202.014 248.031 202.144L256.508 206.603C256.817 206.753 257.25 206.753 257.536 206.603L290.585 189.683C290.894 189.527 291.092 189.214 291.092 188.889V155.067C291.092 154.728 290.894 154.429 290.578 154.26L257.536 137.352C257.228 137.189 256.824 137.189 256.516 137.352L223.488 154.26C223.165 154.422 222.967 154.735 222.967 155.06V188.889C222.967 189.214 223.165 189.52 223.481 189.676L232.53 194.312C237.44 196.493 240.45 193.921 240.45 191.343V157.951C240.45 157.476 240.868 157.105 241.411 157.105H245.594C246.116 157.105 246.549 157.469 246.549 157.951V191.356C246.549 197.17 242.974 200.503 236.765 200.503C234.857 200.503 233.345 200.503 229.147 198.667L220.464 194.234C218.321 193.133 217 191.083 217 188.889V155.06C217 152.86 218.321 150.803 220.464 149.715L253.543 132.788C255.635 131.74 258.417 131.74 260.494 132.788L293.536 149.722C295.672 150.816 297 152.86 297 155.067V188.895C297 191.089 295.672 193.133 293.536 194.24L260.494 211.167C259.437 211.708 258.233 211.988 257.015 211.988V212.001Z" fill="#689F63"/>
</g>
<g style="mix-blend-mode:soft-light">
<path fill-rule="evenodd" clip-rule="evenodd" d="M833 331.014C833 323.427 823.629 316.24 809.256 311.775C812.576 296.927 811.095 285.117 804.603 281.333C803.104 280.447 801.357 280.028 799.444 280.028V285.238C800.501 285.238 801.357 285.453 802.074 285.844C805.21 287.662 806.562 294.597 805.504 303.517C805.247 305.707 804.833 308.019 804.327 310.377C799.812 309.259 794.883 308.392 789.705 307.833C786.597 303.517 783.369 299.593 780.123 296.163C787.627 289.079 794.671 285.21 799.462 285.21V280C793.126 280 784.841 284.577 776.454 292.518C768.067 284.623 759.782 280.093 753.446 280.093V285.304C758.209 285.304 765.281 289.153 772.794 296.181C769.566 299.611 766.348 303.508 763.285 307.833C758.08 308.392 753.151 309.259 748.636 310.396C748.103 308.066 747.717 305.801 747.441 303.629C746.356 294.709 747.698 287.774 750.806 285.928C751.496 285.509 752.397 285.322 753.455 285.322V280.121C751.524 280.121 749.767 280.541 748.25 281.426C741.776 285.21 740.323 297.002 743.67 311.803C729.325 316.277 720 323.445 720 331.014C720 338.601 729.371 345.788 743.744 350.253C740.424 365.101 741.905 376.911 748.397 380.695C749.896 381.581 751.643 382 753.584 382C759.92 382 768.205 377.423 776.592 369.482C784.979 377.377 793.264 381.907 799.6 381.907C801.531 381.907 803.288 381.487 804.805 380.602C811.279 376.818 812.732 365.026 809.385 350.225C823.675 345.769 833 338.573 833 331.014ZM787.002 331.014C787.002 325.123 782.293 320.341 776.472 320.341C770.661 320.341 765.943 325.114 765.943 331.014C765.943 336.914 770.651 341.687 776.472 341.687C782.293 341.677 787.002 336.905 787.002 331.014ZM803.012 315.439C802.157 318.449 801.099 321.553 799.904 324.657C798.957 322.793 797.973 320.919 796.887 319.055C795.83 317.191 794.699 315.364 793.568 313.593C796.841 314.087 799.996 314.693 803.012 315.439ZM792.464 340.307C790.671 343.458 788.823 346.45 786.91 349.227C783.48 349.535 780.004 349.693 776.5 349.693C773.024 349.693 769.548 349.526 766.136 349.246C764.223 346.468 762.357 343.504 760.563 340.372C758.816 337.315 757.225 334.211 755.772 331.079C757.198 327.947 758.816 324.825 760.536 321.768C762.329 318.617 764.177 315.625 766.09 312.847C769.52 312.54 772.996 312.381 776.5 312.381C779.976 312.381 783.452 312.549 786.864 312.829C788.777 315.606 790.643 318.57 792.437 321.702C794.184 324.76 795.775 327.863 797.228 330.995C795.775 334.118 794.193 337.24 792.464 340.307ZM799.904 337.268C801.145 340.4 802.203 343.523 803.086 346.561C800.069 347.307 796.887 347.941 793.595 348.426C794.726 346.627 795.848 344.781 796.915 342.889C797.963 341.025 798.957 339.133 799.904 337.268ZM776.546 362.174C774.403 359.937 772.261 357.439 770.146 354.708C772.215 354.801 774.339 354.876 776.482 354.876C778.643 354.876 780.785 354.829 782.882 354.708C780.804 357.439 778.661 359.937 776.546 362.174ZM759.414 348.426C756.14 347.932 752.986 347.326 749.97 346.58C750.825 343.569 751.882 340.466 753.078 337.362C754.025 339.226 755.009 341.099 756.094 342.964C757.179 344.837 758.283 346.655 759.414 348.426ZM776.426 299.844C778.569 302.082 780.712 304.58 782.827 307.311C780.758 307.217 778.633 307.143 776.491 307.143C774.33 307.143 772.187 307.189 770.09 307.311C772.169 304.58 774.311 302.082 776.426 299.844ZM759.386 313.593C758.255 315.392 757.133 317.238 756.067 319.13C755.009 320.994 754.016 322.867 753.069 324.732C751.827 321.6 750.77 318.477 749.887 315.439C752.912 314.712 756.094 314.087 759.386 313.593ZM738.539 342.824C730.382 339.3 725.113 334.677 725.113 331.014C725.113 327.351 730.391 322.7 738.539 319.204C740.516 318.337 742.686 317.573 744.921 316.846C746.236 321.423 747.965 326.186 750.108 331.061C747.993 335.917 746.282 340.652 744.995 345.21C742.714 344.483 740.544 343.691 738.539 342.824ZM750.935 376.184C747.799 374.366 746.448 367.431 747.505 358.511C747.763 356.321 748.176 354.009 748.682 351.651C753.197 352.769 758.126 353.636 763.304 354.195C766.412 358.511 769.64 362.435 772.886 365.865C765.373 372.94 758.329 376.818 753.538 376.818C752.499 376.79 751.625 376.584 750.935 376.184ZM805.568 358.399C806.654 367.319 805.311 374.254 802.203 376.1C801.513 376.519 800.612 376.706 799.554 376.706C794.791 376.706 787.719 372.856 780.206 365.828C783.434 362.398 786.652 358.502 789.715 354.177C794.92 353.617 799.849 352.751 804.364 351.604C804.897 353.962 805.311 356.227 805.568 358.399ZM814.433 342.824C812.456 343.691 810.286 344.455 808.051 345.182C806.736 340.605 805.007 335.842 802.865 330.967C804.98 326.111 806.69 321.376 807.978 316.818C810.258 317.545 812.419 318.337 814.452 319.195C822.609 322.718 827.878 327.341 827.878 331.005C827.859 334.677 822.59 339.319 814.433 342.824Z" fill="#00D8FF"/>
</g>
<g style="mix-blend-mode:soft-light" clip-path="url(#clip2)">
<path d="M996.029 652.671L1005.5 598.327C1005.62 597.659 1006.19 597.137 1006.93 597.022C1007.67 596.906 1008.41 597.232 1008.77 597.827L1018.56 614.21L1022.46 607.545C1022.76 607.029 1023.36 606.708 1024.01 606.708C1024.67 606.708 1025.26 607.029 1025.56 607.545L1051.99 652.671H996.029Z" fill="#FFA000"/>
<path d="M1028.75 631.503L1018.56 614.204L996.029 652.671L1028.75 631.503Z" fill="#F57C00"/>
<path d="M1052 652.671L1044.74 612.419C1044.63 611.84 1044.17 611.366 1043.55 611.187C1042.93 611.008 1042.25 611.156 1041.79 611.572L996.029 652.671L1021.34 665.4C1022.93 666.195 1024.87 666.195 1026.46 665.4L1052 652.671Z" fill="#FFCA28"/>
<path d="M1044.74 612.419C1044.63 611.84 1044.17 611.366 1043.55 611.187C1042.93 611.008 1042.25 611.156 1041.79 611.572L1032.7 619.737L1025.56 607.545C1025.27 607.029 1024.67 606.707 1024.01 606.707C1023.36 606.707 1022.77 607.029 1022.46 607.545L1018.56 614.209L1008.77 597.827C1008.42 597.232 1007.67 596.905 1006.93 597.021C1006.19 597.137 1005.61 597.663 1005.5 598.327L996.029 652.671H996L996.029 652.702L996.276 652.813L1041.77 611.972C1042.23 611.556 1042.91 611.403 1043.54 611.582C1044.17 611.761 1044.63 612.235 1044.73 612.819L1051.92 652.707L1051.99 652.671L1044.74 612.419ZM996.112 652.597L1005.5 598.716C1005.61 598.048 1006.19 597.521 1006.93 597.411C1007.67 597.3 1008.41 597.621 1008.77 598.216L1018.56 614.599L1022.46 607.934C1022.76 607.418 1023.36 607.097 1024.01 607.097C1024.67 607.097 1025.26 607.418 1025.56 607.934L1032.56 619.863L996.112 652.597Z" fill="white" fill-opacity="0.2"/>
<path opacity="0.2" d="M1026.46 665.016C1024.87 665.81 1022.93 665.81 1021.35 665.016L996.094 652.323L996.035 652.671L1021.35 665.4C1022.94 666.195 1024.88 666.195 1026.46 665.4L1052 652.671L1051.94 652.307L1026.46 665.016Z" fill="#A52714"/>
<path d="M1044.67 612.424C1044.56 611.845 1044.1 611.371 1043.49 611.192C1042.87 611.013 1042.19 611.161 1041.73 611.576L1032.67 619.741L1025.56 607.554C1025.26 607.039 1024.66 606.717 1024.01 606.717C1023.37 606.717 1022.78 607.039 1022.47 607.554L1018.58 614.219L1008.82 597.842C1008.47 597.247 1007.73 596.92 1006.99 597.036C1006.25 597.152 1005.67 597.679 1005.56 598.342L996.129 652.66L1021.36 665.383C1022.94 666.178 1024.87 666.178 1026.45 665.383L1051.89 652.66L1044.67 612.424Z" fill="url(#paint0_linear)"/>
</g>
<g style="mix-blend-mode:overlay">
<path fill-rule="evenodd" clip-rule="evenodd" d="M1097.53 216.228C1087.59 216.228 1085.5 211.741 1085.5 207.973C1085.5 207.615 1085.8 207.327 1086.16 207.327H1089.1C1089.42 207.327 1089.69 207.561 1089.74 207.873C1090.19 210.817 1091.5 212.302 1097.52 212.302C1102.31 212.302 1104.34 211.239 1104.34 208.737C1104.34 207.298 1103.76 206.23 1096.32 205.515C1090.1 204.91 1086.26 203.565 1086.26 198.665C1086.26 194.157 1090.12 191.472 1096.6 191.472C1103.88 191.472 1107.48 193.954 1107.93 199.295C1107.95 199.479 1107.88 199.658 1107.76 199.792C1107.63 199.921 1107.45 200 1107.27 200H1104.33C1104.02 200 1103.75 199.787 1103.69 199.499C1102.98 196.406 1101.26 195.413 1096.59 195.413C1091.36 195.413 1090.76 197.205 1090.76 198.546C1090.76 200.174 1091.47 200.651 1098.53 201.569C1105.51 202.482 1108.83 203.768 1108.83 208.598C1108.83 213.468 1104.7 216.258 1097.5 216.258L1097.53 216.228ZM1090.51 234C1089.68 234 1088.86 233.787 1088.13 233.375L1080.54 228.956C1079.41 228.331 1079.96 228.112 1080.34 227.983C1081.85 227.462 1082.15 227.348 1083.77 226.445C1083.94 226.35 1084.16 226.385 1084.33 226.484L1090.16 229.885C1090.37 229.999 1090.67 229.999 1090.87 229.885L1113.59 216.983C1113.8 216.864 1113.94 216.625 1113.94 216.377V190.588C1113.94 190.33 1113.8 190.102 1113.58 189.973L1090.87 177.081C1090.66 176.956 1090.38 176.956 1090.17 177.081L1067.46 189.973C1067.24 190.097 1067.1 190.335 1067.1 190.583V216.377C1067.1 216.625 1067.24 216.859 1067.46 216.978L1073.68 220.512C1077.05 222.175 1079.12 220.214 1079.12 218.249V192.787C1079.12 192.425 1079.41 192.142 1079.78 192.142H1082.66C1083.02 192.142 1083.31 192.42 1083.31 192.787V218.259C1083.31 222.692 1080.86 225.233 1076.59 225.233C1075.28 225.233 1074.24 225.233 1071.35 223.833L1065.38 220.453C1063.91 219.614 1063 218.05 1063 216.377V190.583C1063 188.905 1063.91 187.337 1065.38 186.508L1088.12 173.601C1089.56 172.801 1091.47 172.801 1092.9 173.601L1115.62 186.513C1117.09 187.347 1118 188.905 1118 190.588V216.382C1118 218.055 1117.09 219.614 1115.62 220.458L1092.9 233.365C1092.18 233.777 1091.35 233.99 1090.51 233.99V234Z" fill="#689F63"/>
</g>
<g style="mix-blend-mode:soft-light" clip-path="url(#clip3)">
<path fill-rule="evenodd" clip-rule="evenodd" d="M679 825.137C679 829.48 682.808 833 687.508 833H736.487C741.187 833 744.995 829.48 744.995 825.137V779.863C744.995 775.52 741.187 772 736.487 772H687.508C682.808 772 679 775.52 679 779.863V825.137Z" fill="#563D7C"/>
<path fill-rule="evenodd" clip-rule="evenodd" d="M706.371 798.98V790.343H714.6C715.384 790.343 716.141 790.402 716.866 790.521C717.591 790.641 718.236 790.859 718.8 791.167C719.358 791.479 719.81 791.906 720.143 792.462C720.481 793.013 720.647 793.723 720.647 794.582C720.647 796.136 720.143 797.253 719.138 797.943C718.128 798.633 716.845 798.975 715.276 798.975H706.371V798.98ZM697.584 784.033V820.967H716.947C718.735 820.967 720.481 820.758 722.178 820.346C723.875 819.934 725.385 819.294 726.711 818.43C728.038 817.566 729.091 816.454 729.875 815.094C730.659 813.734 731.051 812.121 731.051 810.259C731.051 807.951 730.444 805.975 729.23 804.337C728.017 802.699 726.18 801.552 723.72 800.897C725.508 800.102 726.862 799.085 727.78 797.844C728.693 796.603 729.15 795.049 729.15 793.187C729.15 791.465 728.844 790.015 728.226 788.844C727.608 787.672 726.744 786.734 725.621 786.024C724.504 785.319 723.161 784.808 721.593 784.5C720.024 784.187 718.29 784.033 716.388 784.033H697.584ZM706.371 814.657V804.515H715.942C717.844 804.515 719.375 804.923 720.535 805.732C721.689 806.541 722.27 807.896 722.27 809.792C722.27 810.76 722.092 811.55 721.738 812.17C721.383 812.791 720.905 813.282 720.309 813.645C719.713 814.007 719.02 814.265 718.236 814.419C717.452 814.573 716.63 814.652 715.771 814.652H706.371V814.657Z" fill="white"/>
</g>
<g style="mix-blend-mode:overlay" clip-path="url(#clip4)">
<path d="M199.032 877.875L209.347 799.903C209.475 798.944 210.101 798.196 210.907 798.03C211.713 797.864 212.519 798.332 212.909 799.186L223.575 822.691L227.828 813.129C228.154 812.389 228.806 811.928 229.516 811.928C230.226 811.928 230.872 812.389 231.204 813.129L259.994 877.875H199.032Z" fill="#FFA000"/>
<path d="M234.67 847.504L223.575 822.684L199.032 877.875L234.67 847.504Z" fill="#F57C00"/>
<path d="M260 877.875L252.096 820.123C251.975 819.293 251.476 818.613 250.798 818.356C250.12 818.099 249.378 818.311 248.873 818.907L199.032 877.875L226.606 896.139C228.339 897.279 230.45 897.279 232.176 896.139L260 877.875Z" fill="#FFCA28"/>
<path d="M252.096 820.123C251.975 819.292 251.476 818.613 250.798 818.356C250.12 818.099 249.378 818.31 248.873 818.907L238.98 830.622L231.204 813.129C230.878 812.389 230.226 811.928 229.516 811.928C228.806 811.928 228.16 812.389 227.828 813.129L223.575 822.691L212.909 799.186C212.525 798.332 211.713 797.864 210.907 798.03C210.101 798.196 209.468 798.952 209.347 799.903L199.032 877.875H199L199.032 877.92L199.301 878.079L248.854 819.481C249.359 818.884 250.101 818.665 250.785 818.922C251.469 819.179 251.968 819.859 252.083 820.697L259.917 877.928L259.994 877.875L252.096 820.123ZM199.122 877.769L209.347 800.462C209.468 799.503 210.101 798.748 210.907 798.589C211.713 798.43 212.519 798.891 212.909 799.745L223.575 823.25L227.828 813.688C228.154 812.948 228.806 812.487 229.516 812.487C230.226 812.487 230.872 812.948 231.204 813.688L238.827 830.803L199.122 877.769Z" fill="white" fill-opacity="0.2"/>
<path opacity="0.2" d="M232.183 895.588C230.45 896.728 228.339 896.728 226.613 895.588L199.102 877.377L199.038 877.875L226.613 896.139C228.346 897.279 230.456 897.279 232.183 896.139L260 877.875L259.93 877.354L232.183 895.588Z" fill="#A52714"/>
<path d="M252.019 820.131C251.898 819.3 251.399 818.62 250.728 818.363C250.05 818.107 249.314 818.318 248.809 818.915L238.948 830.63L231.198 813.144C230.872 812.404 230.219 811.943 229.516 811.943C228.813 811.943 228.167 812.404 227.834 813.144L223.594 822.707L212.966 799.209C212.583 798.355 211.777 797.887 210.971 798.053C210.165 798.219 209.539 798.974 209.417 799.926L199.141 877.86L226.619 896.116C228.346 897.257 230.45 897.257 232.17 896.116L259.885 877.86L252.019 820.131Z" fill="url(#paint1_linear)"/>
</g>
<g style="mix-blend-mode:overlay">
<path fill-rule="evenodd" clip-rule="evenodd" d="M297 461H384V546H297V461Z" fill="#F7DF1E"/>
<path fill-rule="evenodd" clip-rule="evenodd" d="M319.876 532.034L326.531 528.098C327.812 530.325 328.981 532.207 331.784 532.207C334.468 532.207 336.167 531.183 336.167 527.185V500.021H344.344V527.296C344.344 535.569 339.381 539.332 332.138 539.332C325.596 539.332 321.802 536.025 319.876 532.034ZM348.784 531.176L355.439 527.413C357.195 530.208 359.468 532.262 363.496 532.262C366.88 532.262 369.047 530.609 369.047 528.326C369.047 525.587 366.831 524.619 363.093 523.021L361.046 522.163C355.149 519.707 351.233 516.629 351.233 510.127C351.233 504.136 355.906 499.571 363.206 499.571C368.403 499.571 372.141 501.342 374.824 505.963L368.459 509.954C367.057 507.498 365.542 506.53 363.206 506.53C360.813 506.53 359.291 508.01 359.291 509.954C359.291 512.347 360.806 513.323 364.31 514.803L366.356 515.661C373.309 518.573 377.217 521.54 377.217 528.216C377.217 535.403 371.433 539.339 363.666 539.339C356.083 539.339 351.177 535.797 348.784 531.176Z" fill="black"/>
</g>
</g>
<defs>
<linearGradient id="paint0_linear" x1="994.179" y1="608.765" x2="1060.27" y2="647.643" gradientUnits="userSpaceOnUse">
<stop stop-color="white" stop-opacity="0.1"/>
<stop offset="0.14" stop-color="white" stop-opacity="0.08"/>
<stop offset="0.61" stop-color="white" stop-opacity="0.02"/>
<stop offset="1" stop-color="white" stop-opacity="0"/>
</linearGradient>
<linearGradient id="paint1_linear" x1="197.017" y1="814.881" x2="277.809" y2="850.961" gradientUnits="userSpaceOnUse">
<stop stop-color="white" stop-opacity="0.1"/>
<stop offset="0.14" stop-color="white" stop-opacity="0.08"/>
<stop offset="0.61" stop-color="white" stop-opacity="0.02"/>
<stop offset="1" stop-color="white" stop-opacity="0"/>
</linearGradient>
<clipPath id="clip0">
<rect width="1440" height="1024" fill="white"/>
</clipPath>
<clipPath id="clip1">
<rect width="80" height="80" fill="white" transform="translate(217 132)"/>
</clipPath>
<clipPath id="clip2">
<rect width="56" height="69" fill="white" transform="translate(996 597)"/>
</clipPath>
<clipPath id="clip3">
<rect width="65.9946" height="61" fill="white" transform="translate(679 772)"/>
</clipPath>
<clipPath id="clip4">
<rect width="61" height="99" fill="white" transform="translate(199 798)"/>
</clipPath>
</defs>
</svg>
